<?xml version="1.0" encoding="utf-8"?>
<!-- Generator: Adobe Illustrator 23.0.4, SVG Export Plug-In . SVG Version: 6.00 Build 0)  -->
<svg version="1.1" id="Layer_1" xmlns="http://www.w3.org/2000/svg" xmlns:xlink="http://www.w3.org/1999/xlink" x="0px" y="0px"
	 width="200px" height="200px" viewBox="0 0 200 200" style="enable-background:new 0 0 200 200;" xml:space="preserve">
<style type="text/css">
	.st0{fill:#575756;}
</style>
<g>
	<path class="st0" d="M64,136.9l0.1-73.9c0-2.8-2.3-5.1-5-5.1l-3.3,0c-2.8,0-5.1,2.3-5.1,5l-0.1,73.9c0,2.8,2.3,5.1,5,5.1l3.3,0
		C61.7,142,64,139.7,64,136.9"/>
	<path class="st0" d="M89.8,161.5l3.3,0c2.8,0,5.1-2.3,5.1-5.1l0.1-113c0-2.8-2.3-5.1-5-5.1l-3.3,0c-2.8,0-5.1,2.3-5.1,5l-0.1,113
		C84.7,159.3,87,161.5,89.8,161.5"/>
	<path class="st0" d="M72.7,177.2l3.3,0c2.8,0,5.1-2.3,5.1-5l0.1-144.4c0-2.8-2.3-5.1-5.1-5.1l-3.3,0c-2.8,0-5.1,2.3-5.1,5
		l-0.1,144.4C67.6,175,69.9,177.2,72.7,177.2"/>
	<path class="st0" d="M132.3,138.6l0.1-77.2c0-2.8-2.3-5.1-5-5.1l-3.3,0c-2.8,0-5.1,2.3-5.1,5.1l-0.1,77.2c0,2.8,2.3,5.1,5,5.1
		l3.3,0C130,143.7,132.3,141.4,132.3,138.6"/>
	<path class="st0" d="M33.6,78.2l0,43.6c0,2.8,2.3,5.1,5,5.1l3.3,0c2.8,0,5.1-2.3,5.1-5.1l0-43.6c0-2.8-2.3-5.1-5-5.1l-3.3,0
		C35.9,73.1,33.6,75.4,33.6,78.2"/>
	<path class="st0" d="M16.5,91.4l0,17.3c0,2.8,2.3,5.1,5.1,5.1l3.3,0c2.8,0,5.1-2.3,5.1-5l0-17.3c0-2.8-2.3-5.1-5-5.1l-3.3,0
		C18.8,86.3,16.5,88.6,16.5,91.4"/>
	<path class="st0" d="M170.1,91.4l0,17.3c0,2.8,2.3,5.1,5.1,5.1l3.3,0c2.8,0,5.1-2.3,5.1-5l0-17.3c0-2.8-2.3-5.1-5-5.1l-3.3,0
		C172.4,86.3,170.1,88.6,170.1,91.4"/>
	<path class="st0" d="M101.9,79.3l0,41.4c0,2.8,2.3,5.1,5,5.1l3.3,0c2.8,0,5.1-2.3,5.1-5l0-41.4c0-2.8-2.3-5.1-5-5.1l-3.3,0
		C104.1,74.3,101.9,76.5,101.9,79.3"/>
	<path class="st0" d="M161.4,73.1l-3.3,0c-2.8,0-5.1,2.3-5.1,5.1l0,43.6c0,2.8,2.3,5.1,5.1,5.1l3.3,0c2.8,0,5.1-2.3,5.1-5l0-43.6
		C166.4,75.4,164.2,73.1,161.4,73.1"/>
	<path class="st0" d="M141,168l3.3,0c2.8,0,5.1-2.3,5.1-5l0.1-125.9c0-2.8-2.3-5.1-5-5.1l-3.3,0c-2.8,0-5.1,2.3-5.1,5l-0.1,125.9
		C135.9,165.7,138.2,168,141,168"/>
</g>
</svg>
